<?xml version="1.0" encoding="UTF-8"?>
<svg id="Layer_2" data-name="Layer 2" xmlns="http://www.w3.org/2000/svg" viewBox="0 0 800 800">
  <defs>
    <style>
      .cls-1 {
        letter-spacing: 5.3em;
      }

      .cls-2 {
        letter-spacing: 5.29em;
      }

      .cls-3 {
        fill: none;
      }

      .cls-3, .cls-4, .cls-5, .cls-6 {
        stroke-width: 0px;
      }

      .cls-7 {
        fill: #414042;
        font-family: MyriadPro-Bold, 'Myriad Pro';
        font-size: 18px;
        font-weight: 700;
        opacity: 0;
      }

      .cls-4 {
        fill: #d7bb8f;
      }

      .cls-5 {
        fill: #59888e;
      }

      .cls-6 {
        fill: #5f6e78;
      }
    </style>
  </defs>
  <g id="Layer_1-2" data-name="Layer 1">
    <g>
      <path class="cls-6" d="m300.6,357.53v28.63c-.01,14.34-1.46,28.34-4.22,41.87-2.97,14.57-7.46,28.58-13.3,41.88-6.54,14.92-14.78,28.92-24.47,41.78-.02.03-.04.06-.07.09-11.93,15.82-26.06,29.89-41.93,41.78-.04.03-.07.06-.11.09-12.9,9.64-26.94,17.84-41.9,24.35v-46.86c9.65-5.56,18.69-12.06,27-19.36,5.32-4.66,10.32-9.65,15-14.94,7.33-8.29,13.86-17.31,19.46-26.93,7.53-12.96,13.37-27.02,17.22-41.88,3.46-13.38,5.31-27.41,5.32-41.87v-28.63h42Z"/>
      <path class="cls-6" d="m508.6,397.53v-28.63c.01-14.34,1.46-28.34,4.22-41.87,2.97-14.57,7.46-28.58,13.3-41.88,6.54-14.92,14.78-28.92,24.47-41.78.02-.03.04-.06.07-.09,11.93-15.82,26.06-29.89,41.93-41.78.04-.03.07-.06.11-.09,12.9-9.64,26.94-17.84,41.9-24.35v46.86c-9.65,5.56-18.69,12.06-27,19.36-5.32,4.66-10.32,9.65-15,14.94-7.33,8.29-13.86,17.31-19.46,26.93-7.53,12.96-13.37,27.02-17.22,41.88-3.46,13.38-5.31,27.41-5.32,41.87v28.63h-42Z"/>
    </g>
    <g>
      <path class="cls-4" d="m425.6,217.18v-.7,154.05h-42v-144.78c-15.65,5.44-29.89,13.82-42.01,24.46-3.52,3.1-6.86,6.39-10.02,9.85-10.82,11.91-19.33,25.87-24.84,41.23-4.62,12.87-7.13,26.72-7.13,41.14v.1h-41v-.1c0-14.38,1.81-28.34,5.23-41.65,3.8-14.81,9.58-28.83,17.05-41.75,5.58-9.67,12.11-18.74,19.46-27.06,4.59-5.19,9.49-10.11,14.69-14.7,8.33-7.36,17.39-13.9,27.06-19.5,12.92-7.48,26.94-13.27,41.76-17.09,11.54-2.96,23.55-4.73,35.9-5.15h5.84v41.65Z"/>
      <path class="cls-4" d="m384.6,535.89v.64-152.99h41v143.98c15.65-5.45,29.89-13.84,42.01-24.5,3.52-3.11,6.86-6.4,10.02-9.86,10.82-11.93,19.33-25.92,24.84-41.3,4.62-12.89,7.13-26.76,7.13-41.21v-.1h42v.1c0,14.38-1.81,28.34-5.23,41.65-3.8,14.81-9.58,28.83-17.05,41.75-5.58,9.67-12.11,18.74-19.46,27.06-4.59,5.19-9.49,10.11-14.69,14.7-8.33,7.36-17.39,13.9-27.06,19.5-12.92,7.48-26.94,13.27-41.76,17.09-11.54,2.96-23.55,4.73-35.9,5.15h-5.84v-41.65Z"/>
    </g>
    <text class="cls-7" transform="translate(129.7 620.21)"><tspan class="cls-2" x="0" y="0">FINU</tspan><tspan class="cls-1" x="419.91" y="0">R</tspan><tspan x="525.89" y="0">A</tspan></text>
    <g>
      <path class="cls-5" d="m246.6,175.98v46.95c-9.73,5.64-18.85,12.22-27.22,19.62-5.23,4.61-10.16,9.56-14.78,14.79-7.39,8.38-13.96,17.49-19.58,27.22-7.77,13.45-12.21,25.46-14.74,33.53-.45,1.43-1.41,4.57-2.41,8.47-2.42,9.45-5.12,23.59-5.27,41.9v209.07h-42v-209.09c0-14.34,1.43-28.36,4.18-41.9,2.95-14.61,7.42-28.66,13.24-42,6.54-15,14.79-29.08,24.49-42.01h.09v-.12c11.91-15.85,26.01-29.96,41.85-41.88h.15v-.11c12.93-9.68,27-17.91,42-24.44Z"/>
      <path class="cls-5" d="m563.6,577.08v-46.34c9.73-5.64,18.85-12.22,27.22-19.62,5.23-4.61,10.16-9.56,14.78-14.79,7.39-8.38,13.96-17.49,19.58-27.22,7.51-13,13.33-27.1,17.15-42,3.44-13.39,5.27-27.43,5.27-41.9v-209.68h41v209.09c0,14.34-1.43,28.36-4.18,41.9-2.95,14.61-7.42,28.66-13.24,42-6.54,15-14.79,29.08-24.49,42.01h-.09v.12c-11.91,15.85-26.01,29.96-41.85,41.88h.85v.11c-12.93,9.68-27,17.91-42,24.44Z"/>
      <rect class="cls-5" x="174.6" y="342.53" width="72" height="15"/>
      <rect class="cls-5" x="563.6" y="397.1" width="71" height="15"/>
    </g>
    <circle class="cls-3" cx="400" cy="400" r="400"/>
  </g>
</svg>